<svg width="48" height="48" viewBox="0 0 48 48" fill="none" xmlns="http://www.w3.org/2000/svg">
    <g clip-path="url(#clip0_246_2162)">
        <path d="M24 0C10.766 0 0 10.766 0 24C0 37.234 10.766 48 24 48C37.234 48 48 37.234 48 24C48 10.766 37.234 0 24 0Z" fill="#131315"/>
        <path d="M24.0001 2C35.3921 2 44.7861 10.704 45.8901 21.81C44.2621 22.17 40.1281 22.924 33.9001 22.992C33.3841 17.956 29.1681 14 24.0001 14C18.8321 14 14.6161 17.956 14.1021 22.992C7.87406 22.924 3.73806 22.17 2.11206 21.81C3.21406 10.704 12.6081 2 24.0001 2Z" fill="#FF0000"/>
        <path opacity="0.2" d="M24 3.688C34.824 3.688 43.828 11.55 45.648 21.86C45.724 21.844 45.822 21.824 45.89 21.81C44.786 10.704 35.392 2 24 2C12.608 2 3.21399 10.704 2.10999 21.81C2.17799 21.824 2.27599 21.844 2.35199 21.86C4.17199 11.55 13.176 3.688 24 3.688Z" fill="white"/>
        <path d="M24 32C28.4183 32 32 28.4183 32 24C32 19.5817 28.4183 16 24 16C19.5817 16 16 19.5817 16 24C16 28.4183 19.5817 32 24 32Z" fill="#455A64"/>
        <path d="M24 46C11.87 46 2 36.13 2 24C2 23.944 2.008 23.89 2.008 23.834C3.912 24.24 8.028 24.916 14.098 24.982C14.602 30.03 18.822 34 24 34C29.178 34 33.398 30.03 33.9 24.984C39.97 24.918 44.086 24.24 45.99 23.836C45.992 23.89 46 23.944 46 24C46 36.13 36.13 46 24 46Z" fill="white"/>
        <path opacity="0.1" d="M45.928 23.848C45.196 35.32 35.656 44.438 24 44.438C12.344 44.438 2.804 35.32 2.072 23.848C2.054 23.844 2.028 23.84 2.01 23.836C2.008 23.89 2 23.944 2 24C2 36.13 11.87 46 24 46C36.13 46 46 36.13 46 24C46 23.944 45.992 23.89 45.992 23.834C45.974 23.838 45.948 23.844 45.928 23.848Z" fill="black"/>
        <path d="M24 30C27.3137 30 30 27.3137 30 24C30 20.6863 27.3137 18 24 18C20.6863 18 18 20.6863 18 24C18 27.3137 20.6863 30 24 30Z" fill="#131315"/>
        <path d="M24 28C26.2091 28 28 26.2091 28 24C28 21.7909 26.2091 20 24 20C21.7909 20 20 21.7909 20 24C20 26.2091 21.7909 28 24 28Z" fill="#F2F2F2"/>
        <path opacity="0.2" d="M20.792 25.208C20.792 23.002 22.586 21.208 24.792 21.208C25.938 21.208 26.964 21.698 27.694 22.472C27.092 21.022 25.664 20 24 20C21.794 20 20 21.794 20 24C20 25.06 20.422 26.02 21.098 26.736C20.902 26.266 20.792 25.75 20.792 25.208Z" fill="white"/>
        <path d="M44.006 33.1L35.844 24.938C35.218 24.96 34.576 24.976 33.9 24.984C33.398 30.03 29.178 34 24 34C21.178 34 18.668 32.796 16.86 30.906L16.83 30.92L30.816 44.906C36.688 42.986 41.466 38.662 44.006 33.1Z" fill="url(#paint0_linear_246_2162)"/>
    </g>
    <defs>
        <linearGradient id="paint0_linear_246_2162" x1="23.08" y1="24.67" x2="38.742" y2="40.332" gradientUnits="userSpaceOnUse">
            <stop stop-opacity="0.1"/>
            <stop offset="1" stop-opacity="0"/>
        </linearGradient>
        <clipPath id="clip0_246_2162">
            <rect width="48" height="48" fill="white"/>
        </clipPath>
    </defs>
</svg>
