<svg width="48" height="48" viewBox="0 0 48 48" fill="none" xmlns="http://www.w3.org/2000/svg">
    <path d="M39.6864 37.3056C35.3792 38.7264 31.1937 38.0544 27.1169 36.3712C24.0321 35.0976 21.3057 33.1456 18.4001 31.5328C16.1217 30.2656 13.8049 29.12 11.1745 28.7808C10.0865 28.64 8.99205 28.6912 7.89765 28.7424C6.32965 28.8128 4.79365 28.6784 3.34725 27.9808C1.81125 27.2384 1.42725 26.0928 2.21445 24.5696C2.82245 23.4048 3.75045 22.6624 5.05605 22.4064C8.04485 21.8176 10.5729 22.464 12.6977 24.8128C15.1169 27.4816 18.3233 28.9152 21.7409 29.856C24.9217 30.7328 28.1856 31.0592 31.4816 30.8992C32.7745 30.8352 34.0288 30.5792 35.2192 30.0288C37.6896 28.8896 38.5793 26.496 37.4529 24.0256C37.2544 23.5904 37.0176 23.1744 36.64 22.72C36.0961 24.3904 34.9632 25.2864 33.4464 25.7856C30.7584 26.6752 27.9937 26.7392 25.2225 26.4768C20.6785 26.048 16.5185 24.4352 12.5761 22.176C11.9425 21.8112 11.7569 21.376 11.8785 20.6848C12.3201 18.24 12.9537 15.0592 14.0289 12.8064C14.8289 11.136 16.0321 10.272 17.9265 10.3488C19.3345 10.4064 20.7361 11.3984 22.1505 11.36C23.5521 11.328 24.8961 11.0656 26.1825 10.5088C29.3569 9.12641 32.3201 10.176 33.9137 13.2608C34.6497 14.688 35.1169 16.2176 35.5136 17.7728C35.808 18.9248 35.808 18.8928 36.9856 19.0912C39.68 19.5392 42.1889 20.4032 43.9936 22.5856C48.2432 27.7056 46.0416 35.2128 39.6864 37.3056Z" fill="#0EB10E"/>
</svg>
