<svg width="48" height="48" viewBox="0 0 48 48" fill="none" xmlns="http://www.w3.org/2000/svg">
    <path fill-rule="evenodd" clip-rule="evenodd" d="M22.8406 5.18009C10.0146 5.78371 0.145508 16.8342 0.145508 29.6771V38.1774C0.145508 40.2047 1.78913 41.8468 3.8143 41.8468H44.171C46.198 41.8468 47.8398 40.2047 47.8398 38.1774V29.0038C47.8398 15.449 36.5344 4.53427 22.8406 5.18009Z" fill="white"/>
    <path fill-rule="evenodd" clip-rule="evenodd" d="M24.9105 5.20068V12.4918H41.1761C37.0359 8.18209 31.2961 5.4447 24.9105 5.20068Z" fill="#3300FF"/>
    <path fill-rule="evenodd" clip-rule="evenodd" d="M23.0761 5.20068C16.6906 5.4447 10.9508 8.18209 6.81055 12.4918H23.0761V5.20068Z" fill="#3300FF"/>
    <path fill-rule="evenodd" clip-rule="evenodd" d="M32.8847 27.1695H22.4397C21.3225 27.1695 20.4659 26.1806 20.6236 25.0761L21.9334 15.9026C22.0636 14.998 22.8377 14.3265 23.7494 14.3265H31.575C32.4867 14.3265 33.2608 14.998 33.391 15.9026L34.7008 25.0761C34.8585 26.1806 34.0019 27.1695 32.8847 27.1695Z" fill="#3300FF"/>
    <path fill-rule="evenodd" clip-rule="evenodd" d="M32.2481 20.748C32.2481 23.2818 30.1955 25.3348 27.6622 25.3348C25.1289 25.3348 23.0762 23.2818 23.0762 20.748C23.0762 18.2143 25.1289 16.1613 27.6622 16.1613C30.1955 16.1613 32.2481 18.2143 32.2481 20.748Z" fill="black"/>
    <path fill-rule="evenodd" clip-rule="evenodd" d="M28.5793 19.8306C28.5793 20.8433 27.7575 21.6653 26.7449 21.6653C25.7323 21.6653 24.9105 20.8433 24.9105 19.8306C24.9105 18.8178 25.7323 17.9958 26.7449 17.9958C27.7575 17.9958 28.5793 18.8178 28.5793 19.8306Z" fill="white"/>
    <path fill-rule="evenodd" clip-rule="evenodd" d="M12.9875 30.8389H18.4907V27.1694H12.9875V30.8389Z" fill="black"/>
    <path fill-rule="evenodd" clip-rule="evenodd" d="M12.9875 34.5083H18.4907V30.8389H12.9875V34.5083Z" fill="black"/>
    <path fill-rule="evenodd" clip-rule="evenodd" d="M35.0003 34.5083H25.8284V29.0042H35.0003V34.5083Z" fill="#3300FF"/>
    <path fill-rule="evenodd" clip-rule="evenodd" d="M23.994 34.5083H20.3252V29.0042H23.994V34.5083Z" fill="#3300FF"/>
    <path fill-rule="evenodd" clip-rule="evenodd" d="M0.14624 38.1777C0.14624 38.6511 0.243463 39.1006 0.406724 39.5152H47.58C47.7433 39.1006 47.8405 38.6511 47.8405 38.1777V36.5338H0.14624V38.1777Z" fill="#3300FF"/>
    <path fill-rule="evenodd" clip-rule="evenodd" d="M11.1526 27.1694H0.278317C0.193935 27.9969 0.14624 28.8317 0.14624 29.6775V34.5083H11.1526V27.1694Z" fill="#3300FF"/>
    <path fill-rule="evenodd" clip-rule="evenodd" d="M46.0061 27.1694V34.5083H47.8405V29.0041C47.8405 28.384 47.791 27.7767 47.7451 27.1694H46.0061Z" fill="#3300FF"/>
    <path fill-rule="evenodd" clip-rule="evenodd" d="M44.1717 30.8389C44.1717 32.8662 42.5299 34.5083 40.5029 34.5083C38.4759 34.5083 36.8341 32.8662 36.8341 30.8389C36.8341 28.8115 38.4759 27.1694 40.5029 27.1694C42.5299 27.1694 44.1717 28.8115 44.1717 30.8389Z" fill="black"/>
    <path fill-rule="evenodd" clip-rule="evenodd" d="M42.7959 30.8389C42.7959 32.1049 41.7687 33.1323 40.503 33.1323C39.2372 33.1323 38.21 32.1049 38.21 30.8389C38.21 29.573 39.2372 28.5455 40.503 28.5455C41.7687 28.5455 42.7959 29.573 42.7959 30.8389Z" fill="white"/>
    <path fill-rule="evenodd" clip-rule="evenodd" d="M33.1654 31.7562C33.1654 32.769 32.3436 33.5909 31.331 33.5909C30.3184 33.5909 29.4966 32.769 29.4966 31.7562C29.4966 30.7435 30.3184 29.9215 31.331 29.9215C32.3436 29.9215 33.1654 30.7435 33.1654 31.7562Z" fill="#FF0000"/>
    <path opacity="0.571012" fill-rule="evenodd" clip-rule="evenodd" d="M4.71441 24.4174C4.6282 24.4174 4.54015 24.4046 4.4521 24.3789C3.96782 24.2339 3.69082 23.7239 3.83574 23.2377C4.67222 20.4324 6.04252 17.8565 7.9081 15.5796C8.23095 15.187 8.81062 15.1319 9.19951 15.4512C9.59024 15.7741 9.6471 16.352 9.32792 16.7428C7.61459 18.8307 6.35803 21.192 5.59309 23.7624C5.47385 24.1606 5.11064 24.4174 4.71441 24.4174Z" fill="white"/>
</svg>
