<svg width="48" height="48" viewBox="0 0 48 48" fill="none" xmlns="http://www.w3.org/2000/svg">
<path fill-rule="evenodd" clip-rule="evenodd" d="M23.6607 2V2.0108C24.164 2.03239 24.646 2.09716 24.8495 2.20512C25.3958 2.4858 25.1494 2.75569 25.8135 2.87444C26.2633 2.95001 26.681 3.00399 27.1201 3.11195C33.9963 4.70969 37.4022 9.70805 37.6807 16.2178C37.7128 17.0275 37.5628 17.265 37.8199 17.5564C38.7624 18.6144 38.3554 18.0099 38.9445 19.5644C40.1012 22.6412 41.0866 25.6423 42.3076 28.6759C42.736 29.7447 43.6999 32.2924 44.2997 32.9294C44.5889 33.2316 44.7924 33.4368 44.9316 33.9118C45.0816 34.4084 44.9638 34.7538 44.7817 35.1533C43.4643 38.0141 41.3329 40.0976 38.2269 41.1772C37.8413 41.3067 35.7313 41.717 35.6778 41.8573C35.6671 41.8681 35.6564 41.9005 35.6457 41.9221L35.5921 42.0516C35.3029 42.8073 33.6214 43.5846 33.2251 43.6062C32.6467 44.2323 28.8767 44.7289 27.7306 44.8369C26.5525 44.9449 25.0744 45.0096 23.5107 44.9988H23.4893C21.9256 44.9988 20.4475 44.9449 19.2694 44.8369C18.1233 44.7289 14.3533 44.2323 13.7749 43.6062C13.3786 43.5846 11.6971 42.8073 11.4079 42.0516L11.3543 41.9221C11.3436 41.9005 11.3329 41.8681 11.3222 41.8573C11.2687 41.717 9.15869 41.3175 8.77311 41.1772C5.65637 40.0976 3.52498 38.0141 2.21831 35.1533C2.03623 34.7538 1.91842 34.4084 2.06836 33.9118C2.2076 33.4476 2.4111 33.2424 2.70028 32.9294C3.30007 32.2924 4.26401 29.7339 4.69243 28.6759C5.91342 25.6423 6.90949 22.6412 8.05551 19.5644C8.63388 18.0099 8.23759 18.6144 9.18011 17.5564C9.44787 17.265 9.28721 17.0167 9.31935 16.2178C9.58711 9.70805 12.993 4.6989 19.8799 3.11195C20.3297 3.00399 20.7474 2.95001 21.1865 2.87444C21.8506 2.75569 21.5935 2.4858 22.1505 2.20512C22.3647 2.09716 22.836 2.03239 23.3393 2.0108V2H23.5H23.6607ZM23.5 3.15513C22.611 3.2307 22.761 3.98639 22.6967 5.26027L22.4075 13.7456C22.0648 14.7604 21.1223 13.1626 19.2158 12.5149C15.2529 11.1547 11.7828 14.6632 13.0037 11.3166C13.218 10.7228 13.6357 9.31941 14.2676 9.1035C14.6746 8.96316 14.7603 9.14668 15.0494 9.31941C15.435 8.98475 16.731 5.85403 21.0045 5.01197C21.4007 4.9364 21.5614 5.06595 21.5079 4.02957C20.0834 3.94321 17.6628 4.80685 16.5703 5.38982C13.6571 6.93358 12.1683 9.30861 11.0973 12.4609C10.2404 14.9871 10.626 14.8468 10.3476 16.3257C10.219 16.9843 9.86558 16.9303 9.70492 17.2758C9.53356 17.6752 9.86558 17.3945 9.42645 17.7832C8.84809 18.3013 8.83737 18.3337 8.51606 19.2406C7.5307 22.0582 4.48893 30.6083 3.25722 32.7027C2.83952 33.4044 2.03623 33.7498 2.48607 34.9265C2.64673 34.43 3.57854 33.0157 3.89985 32.422C6.4061 27.8015 5.72063 28.2009 7.35933 23.8179C8.60174 20.5036 10.7224 15.9695 14.0855 14.3717C16.0776 13.357 18.1448 13.4973 20.1798 14.3394C20.5332 14.4797 21.2187 14.8899 21.465 14.9439C21.9684 15.0519 22.5789 14.8468 23.2001 15.0303C23.3608 15.0735 23.4572 15.1382 23.5214 15.1706C23.5857 15.1274 23.6821 15.0735 23.8427 15.0303C24.4639 14.8575 25.0744 15.0519 25.5778 14.9439C25.8242 14.8899 26.5096 14.4905 26.8631 14.3394C28.8981 13.4973 30.9652 13.357 32.9573 14.3717C36.3097 15.9695 38.4411 20.5036 39.6835 23.8179C41.3329 28.2009 40.6367 27.7907 43.143 32.422C43.475 33.0265 44.3961 34.43 44.5568 34.9265C45.0066 33.7606 44.2033 33.4152 43.7856 32.7027C42.5539 30.6083 39.5121 22.069 38.5268 19.2406C38.2055 18.3229 38.1948 18.3013 37.6164 17.7832C37.188 17.3945 37.52 17.6752 37.3379 17.2758C37.188 16.9303 36.8238 16.9735 36.6953 16.3257C36.4168 14.8468 36.8024 14.9763 35.9456 12.4609C34.8745 9.30861 33.3858 6.94438 30.4725 5.38982C29.38 4.80685 26.9595 3.94321 25.535 4.02957C25.4707 5.07674 25.6421 4.9364 26.0384 5.01197C30.3011 5.85403 31.6078 8.98475 31.9934 9.31941C32.2719 9.14668 32.3576 8.96316 32.7753 9.1035C33.4072 9.31941 33.8249 10.7228 34.0391 11.3166C35.2601 14.6524 31.7899 11.1547 27.827 12.5149C25.9206 13.1734 24.9673 14.7712 24.6353 13.7456L24.3461 5.26027C24.2819 3.98639 24.4318 3.2307 23.5428 3.15513H23.5ZM23.5 18.1394C23.1251 18.1718 22.761 18.2474 22.4075 18.2797L22.4397 18.8951C22.836 18.8195 23.1037 18.7763 23.3393 18.744V18.7224C23.3929 18.7224 23.4464 18.7224 23.5 18.7332C23.5536 18.7332 23.6071 18.7224 23.6607 18.7224V18.744C23.8963 18.7763 24.164 18.8195 24.5603 18.8951L24.5925 18.2797C24.2283 18.2474 23.8642 18.1718 23.5 18.1394ZM23.5 19.6076C23.1894 19.6292 22.5361 19.6832 22.354 19.7803C22.1612 19.8775 21.9041 20.3741 21.8077 20.5252C22.5575 20.3525 23.018 20.2553 23.3393 20.2122V20.1798C23.3929 20.1798 23.4464 20.1906 23.5 20.1906C23.5643 20.1798 23.6178 20.1798 23.6607 20.1798V20.2122C23.982 20.2661 24.4425 20.3633 25.1923 20.5252C25.0959 20.3741 24.8495 19.8775 24.646 19.7803C24.4639 19.694 23.8106 19.6292 23.5 19.6076ZM23.5 21.4213C23.2965 21.4429 23.093 21.486 22.9002 21.5724C22.4718 21.7667 22.4718 21.8423 22.5039 22.0258C22.7503 22.015 23.0073 21.8423 23.3393 21.7667V21.7235C23.3929 21.7235 23.4464 21.7235 23.5 21.7343C23.5536 21.7235 23.6071 21.7235 23.6607 21.7235V21.7667C23.9927 21.8423 24.2497 22.015 24.4961 22.0258C24.5282 21.8423 24.5282 21.7667 24.0998 21.5724C23.907 21.486 23.7035 21.4321 23.5 21.4213ZM23.6607 32.2816H23.5H23.3393C21.3258 32.2708 19.2694 32.2492 17.4914 32.314L17.4165 32.4975C19.098 32.5515 21.2187 32.5515 23.3286 32.5407H23.4893H23.6499C25.7706 32.5515 27.8913 32.5623 29.5621 32.4975L29.4872 32.314C27.7199 32.26 25.6528 32.2708 23.6392 32.2816H23.6607ZM23.6607 32.7998H23.3286H17.3308L22.1076 32.9618C22.5682 32.9618 23.0287 32.9725 23.5 32.9725C23.9713 32.9725 24.4318 32.9618 24.8924 32.9618L29.6692 32.7998H23.6714H23.6607ZM23.4893 33.0589C22.8788 33.0589 22.3754 33.0697 22.1076 33.0697C20.8117 33.0805 19.098 33.0481 17.8449 33.2208C17.8449 33.2208 20.9295 33.264 23.4893 33.2964C26.0491 33.2532 29.1337 33.21 29.1337 33.2208C27.8806 33.0481 26.1669 33.0805 24.8709 33.0697C24.6032 33.0697 24.0998 33.0589 23.4893 33.0589ZM23.6607 33.4691V33.4799H23.5H23.4893H23.3286V33.4691C23.2322 33.4691 23.1358 33.4691 23.0502 33.4691C21.5079 33.4799 19.8692 33.5987 18.434 33.6203C19.0766 33.6635 21.4222 33.6635 23.4893 33.6851C25.5671 33.6635 27.902 33.6635 28.5446 33.6203C27.1094 33.5987 25.46 33.4799 23.9284 33.4691C23.8427 33.4691 23.7571 33.4691 23.6499 33.4691H23.6607ZM23.6607 33.8794H23.5107H23.3608H23.3501C22.3754 33.8794 20.2012 34.0521 19.4086 33.9334L19.4193 34.0737L21.0152 34.1061H23.3608H23.6928H26.0384L27.6342 34.0737L27.645 33.9334C26.8524 34.0521 24.6782 33.8794 23.7035 33.8794H23.6928H23.6607ZM23.5 34.2572C22.5361 34.2788 21.6042 34.3004 20.8224 34.322L19.5478 34.3868L21.947 34.5163C22.4182 34.5271 22.9538 34.5379 23.5107 34.5487C24.0677 34.5379 24.6032 34.5271 25.0744 34.5163L27.4736 34.3868L26.199 34.322C25.4172 34.3004 24.4854 34.268 23.5214 34.2572H23.5ZM23.6607 34.6135H23.5H23.3393L21.947 34.5919L19.987 34.6998C21.1544 34.797 22.3218 34.8186 23.5 34.8186H23.5214C24.6996 34.8186 25.8563 34.797 27.0345 34.6998L25.0744 34.5919L23.6821 34.6135H23.6607ZM23.5 35.0777C22.1933 35.0885 20.9295 35.1425 20.576 35.2396C21.5828 35.2828 22.5468 35.3152 23.5 35.3152C24.4532 35.3044 25.4172 35.2828 26.424 35.2396C26.0705 35.1425 24.8067 35.0885 23.5 35.0777ZM23.5 35.4663C22.5039 35.4771 21.54 35.5311 21.1758 35.5959C21.4329 35.7146 22.3433 35.747 23.3286 35.7362H23.4893H23.6499C24.646 35.747 25.5457 35.7146 25.8028 35.5959C25.4386 35.5311 24.4747 35.4771 23.4786 35.4663H23.5ZM23.6607 35.9413H23.5H23.3393H22.1291L22.1398 36.0925H23.3393H23.5H23.6607H24.8602L24.8709 35.9413H23.6607ZM23.5 36.3192C22.9216 36.33 22.3754 36.3624 22.204 36.384C22.3968 36.5027 22.836 36.5351 23.3393 36.5351H23.5H23.6607C24.1533 36.5351 24.5925 36.5027 24.796 36.384C24.6246 36.3732 24.0784 36.3408 23.5 36.3192ZM23.6607 37.6147V37.8522L23.5 37.7334L23.3393 37.8522V37.6147L18.7338 34.2788C18.2733 33.9441 17.5021 33.2856 17.0202 33.0697C16.9559 33.2208 16.9024 33.0805 17.063 33.2424L22.9859 37.6794C23.1787 37.8198 23.3286 37.9601 23.5 38.0789C23.6714 37.9601 23.832 37.8306 24.0141 37.6794L29.937 33.2424C30.0869 33.0805 30.0441 33.2208 29.9798 33.0697C29.4979 33.2856 28.7267 33.9334 28.2662 34.2788L23.6607 37.6147ZM31.2865 20.9031C31.9077 20.6764 32.8074 20.3849 32.8288 19.8019C32.5611 19.7156 31.3293 20.1906 30.8367 20.2985C30.2262 20.4389 29.1016 20.4065 29.0373 21.0542C29.5943 21.3781 30.751 21.0974 31.2865 20.9031ZM24.9673 16.2826C24.8817 16.2502 24.646 16.2286 24.5496 16.2394C24.164 16.2502 24.1212 16.3042 23.982 16.5417C24.2069 16.9519 25.0423 17.0059 25.2458 16.5417C25.1387 16.315 25.3315 16.4121 24.978 16.2934L24.9673 16.2826ZM32.2397 15.1598C30.7831 14.7064 30.012 14.5877 28.4161 14.9439C27.1951 15.2246 26.2097 15.6996 25.6956 16.4661C26.2312 16.2286 26.4775 15.786 27.8913 15.4405C28.8445 15.2138 29.8513 15.1382 30.8367 15.3218C35.1101 16.1098 36.1169 19.9099 32.5182 21.6696C29.8299 22.9866 27.645 21.8423 27.3129 22.0366C27.4415 22.1985 27.42 22.177 27.7306 22.2741C28.791 22.598 30.8581 22.8679 31.8542 22.8031L32.229 22.7383C32.3361 22.1554 32.304 21.9179 32.9681 21.7775C34.6924 21.4105 35.6885 20.3957 35.2494 18.3985C34.6068 15.5161 32.5611 15.4837 32.2397 15.149V15.1598ZM31.2865 24.077L25.9741 23.0946C26.1776 23.5372 26.3918 23.602 26.6167 24.077L30.0548 28.6651C30.2583 28.9242 30.0869 28.7731 30.344 28.9242C30.8367 28.2549 34.2426 24.973 34.3925 24.6491L31.2972 24.0878L31.2865 24.077ZM25.1923 24.4764L25.0851 24.5412C25.1815 24.9082 25.4493 25.1457 25.6528 25.4372L27.7092 28.1577C28.0841 28.6327 29.4657 30.6839 29.9049 30.8674L29.7978 30.5219C29.5728 30.4356 25.385 24.8867 25.1923 24.4764ZM24.7745 25.7287C24.5282 25.6315 24.7638 25.5992 24.4747 25.4588C24.2926 25.3725 24.0784 25.4048 23.8213 25.3509L23.8106 31.3748H24.8067L24.7745 25.7179V25.7287ZM32.6039 42.1056C33.0109 41.3931 33.5036 42.2028 32.8824 40.0221C32.3147 38.0357 31.5221 35.0237 30.1298 33.4152C30.1619 34.0629 30.3975 34.9481 30.5154 35.6283C30.7724 37.1181 30.9973 38.5431 31.1044 40.0653C31.1687 40.9289 31.1044 41.7925 31.158 42.613C31.7685 42.5698 32.0898 42.246 32.6039 42.1056ZM30.7081 32.5299C31.2972 32.4867 31.2222 32.4975 31.5864 32.1845C31.6828 31.4828 31.4365 31.2237 30.7189 31.2992C30.6867 31.3208 30.3761 31.4396 30.344 31.839C30.3226 32.1845 30.5582 32.314 30.7081 32.5299ZM27.645 29.6475V30.1549V31.0725L27.6557 31.364H28.9623C28.8552 31.1373 27.8163 29.7878 27.645 29.6367V29.6475ZM25.7278 27.1321V31.3856L26.7239 31.3964C26.7239 30.5435 26.7346 29.6799 26.7239 28.827C26.7131 28.3089 26.6275 28.2333 26.349 27.8986L25.7278 27.1429V27.1321ZM15.6921 20.9031C15.0709 20.6764 14.1712 20.3849 14.1498 19.8019C14.4175 19.7156 15.6492 20.1906 16.1419 20.2985C16.7524 20.4389 17.877 20.4065 17.9413 21.0542C17.3843 21.3781 16.2276 21.0974 15.6921 20.9031ZM22.0112 16.2826C22.0969 16.2502 22.3326 16.2286 22.429 16.2394C22.8145 16.2502 22.8574 16.3042 22.9966 16.5417C22.7717 16.9519 21.9363 17.0059 21.7328 16.5417C21.8399 16.315 21.6471 16.4121 22.0005 16.2934L22.0112 16.2826ZM14.7388 15.1598C16.1955 14.7064 16.9666 14.5877 18.5625 14.9439C19.7835 15.2246 20.7688 15.6996 21.2829 16.4661C20.7474 16.2286 20.5011 15.786 19.0873 15.4405C18.1341 15.2138 17.1273 15.1382 16.1419 15.3218C11.8684 16.1098 10.8617 19.9099 14.4604 21.6696C17.1487 22.9866 19.3336 21.8423 19.6657 22.0366C19.5371 22.1985 19.5585 22.177 19.2479 22.2741C18.1876 22.598 16.1205 22.8679 15.1244 22.8031L14.7496 22.7383C14.6424 22.1554 14.6746 21.9179 14.0105 21.7775C12.2861 21.4105 11.2901 20.3957 11.7292 18.3985C12.3718 15.5161 14.4175 15.4837 14.7388 15.149V15.1598ZM15.6921 24.077L21.0045 23.0946C20.801 23.5372 20.5868 23.602 20.3618 24.077L16.9238 28.6651C16.7203 28.9242 16.8916 28.7731 16.6346 28.9242C16.1419 28.2549 12.736 24.973 12.586 24.6491L15.6814 24.0878L15.6921 24.077ZM21.7863 24.4764L21.8934 24.5412C21.797 24.9082 21.5293 25.1457 21.3258 25.4372L19.2694 28.1577C18.8945 28.6327 17.5129 30.6839 17.0737 30.8674L17.1808 30.5219C17.4057 30.4356 21.5935 24.8867 21.7863 24.4764ZM22.204 25.7287C22.4504 25.6315 22.2147 25.5992 22.5039 25.4588C22.686 25.3725 22.9002 25.4048 23.1573 25.3509L23.168 31.3748H22.1719L22.204 25.7179V25.7287ZM14.3747 42.1056C13.9677 41.3931 13.475 42.2028 14.0962 40.0221C14.6639 38.0357 15.4564 35.0237 16.8488 33.4152C16.8167 34.0629 16.581 34.9481 16.4632 35.6283C16.2062 37.1181 15.9813 38.5431 15.8741 40.0653C15.8099 40.9289 15.8741 41.7925 15.8206 42.613C15.2101 42.5698 14.8888 42.246 14.3747 42.1056ZM16.2704 32.5299C15.6814 32.4867 15.7563 32.4975 15.3922 32.1845C15.2958 31.4828 15.5421 31.2237 16.2597 31.2992C16.2919 31.3208 16.6025 31.4396 16.6346 31.839C16.656 32.1845 16.4204 32.314 16.2704 32.5299ZM19.3336 29.6475V30.1549V31.0725L19.3229 31.364H18.0162C18.1233 31.1373 19.1623 29.7878 19.3336 29.6367V29.6475ZM21.2508 27.1321V31.3856L20.2547 31.3964C20.2547 30.5435 20.244 29.6799 20.2547 28.827C20.2654 28.3089 20.3511 28.2333 20.6296 27.8986L21.2508 27.1429V27.1321Z" fill="white"/>
<path fill-rule="evenodd" clip-rule="evenodd" d="M23.773 1.38403V1.39511C24.2935 1.41725 24.7917 1.48369 25.0021 1.59441C25.5668 1.8823 25.3121 2.15912 25.9987 2.28092C26.4637 2.35843 26.8955 2.41379 27.3495 2.52452C34.4582 4.16327 37.9793 9.28992 38.2672 15.9667C38.3004 16.7972 38.1454 17.0408 38.4111 17.3397C39.3855 18.4249 38.9647 17.8048 39.5737 19.3993C40.7696 22.555 41.7883 25.6332 43.0506 28.7446C43.4935 29.8408 44.49 32.4539 45.1101 33.1072C45.409 33.4173 45.6194 33.6276 45.7634 34.1148C45.9184 34.6242 45.7966 34.9785 45.6083 35.3882C44.2464 38.3224 42.0429 40.4595 38.8319 41.5667C38.4333 41.6996 36.2519 42.1204 36.1966 42.2643C36.1855 42.2754 36.1744 42.3086 36.1634 42.3307L36.108 42.4636C35.809 43.2387 34.0706 44.0359 33.6609 44.0581C33.063 44.7003 29.1654 45.2096 27.9807 45.3204C26.7627 45.4311 25.2346 45.4975 23.618 45.4865H23.5959C21.9793 45.4865 20.4512 45.4311 19.2333 45.3204C18.0485 45.2096 14.1509 44.7003 13.553 44.0581C13.1433 44.0359 11.4049 43.2387 11.1059 42.4636L11.0506 42.3307C11.0395 42.3086 11.0284 42.2754 11.0173 42.2643C10.962 42.1204 8.78066 41.7107 8.38204 41.5667C5.1599 40.4595 2.95644 38.3224 1.60557 35.3882C1.41734 34.9785 1.29554 34.6242 1.45056 34.1148C1.5945 33.6387 1.80488 33.4283 2.10384 33.1072C2.72391 32.4539 3.72045 29.8297 4.16336 28.7446C5.42564 25.6332 6.4554 22.555 7.64018 19.3993C8.2381 17.8048 7.82841 18.4249 8.8028 17.3397C9.07962 17.0408 8.91353 16.7861 8.94675 15.9667C9.22357 9.28992 12.7447 4.1522 19.8644 2.52452C20.3294 2.41379 20.7613 2.35843 21.2153 2.28092C21.9018 2.15912 21.636 1.8823 22.2118 1.59441C22.4333 1.48369 22.9205 1.41725 23.4409 1.39511V1.38403H23.607H23.773ZM23.607 2.56881C22.6879 2.64632 22.8429 3.4214 22.7765 4.72798L22.4775 13.4311C22.1232 14.4719 21.1488 12.8332 19.1779 12.1688C15.081 10.7737 11.4935 14.3723 12.7557 10.9397C12.9772 10.3307 13.409 8.8913 14.0623 8.66985C14.4831 8.5259 14.5717 8.71414 14.8706 8.8913C15.2692 8.54805 16.609 5.33697 21.027 4.47331C21.4367 4.3958 21.6028 4.52867 21.5474 3.46569C20.0748 3.37711 17.5724 4.26293 16.4429 4.86085C13.4312 6.44424 11.8921 8.88023 10.7848 12.1134C9.899 14.7044 10.2976 14.5605 10.0097 16.0775C9.87685 16.7529 9.51146 16.6975 9.34537 17.0519C9.1682 17.4615 9.51146 17.1737 9.05748 17.5723C8.45955 18.1038 8.44848 18.137 8.1163 19.0671C7.09761 21.957 3.95298 30.7266 2.67962 32.8747C2.24779 33.5944 1.41734 33.9487 1.88239 35.1557C2.04848 34.6463 3.0118 33.1958 3.34398 32.5868C5.93499 27.8477 5.22633 28.2574 6.92045 23.7619C8.20488 20.3626 10.3973 15.7121 13.8741 14.0733C15.9336 13.0325 18.0706 13.1764 20.1744 14.0401C20.5398 14.184 21.2485 14.6048 21.5031 14.6602C22.0236 14.7709 22.6547 14.5605 23.2969 14.7487C23.463 14.793 23.5627 14.8595 23.6291 14.8927C23.6955 14.8484 23.7952 14.793 23.9613 14.7487C24.6035 14.5716 25.2346 14.7709 25.7551 14.6602C26.0097 14.6048 26.7184 14.1951 27.0838 14.0401C29.1876 13.1764 31.3246 13.0325 33.3841 14.0733C36.8499 15.7121 39.0533 20.3626 40.3378 23.7619C42.0429 28.2574 41.3232 27.8366 43.9142 32.5868C44.2575 33.2069 45.2097 34.6463 45.3758 35.1557C45.8409 33.9598 45.0104 33.6055 44.5786 32.8747C43.3052 30.7266 40.1606 21.9681 39.1419 19.0671C38.8097 18.1259 38.7987 18.1038 38.2007 17.5723C37.7578 17.1737 38.1011 17.4615 37.9128 17.0519C37.7578 16.6975 37.3814 16.7418 37.2485 16.0775C36.9606 14.5605 37.3592 14.6934 36.4734 12.1134C35.3661 8.88023 33.827 6.45531 30.8153 4.86085C29.6859 4.26293 27.1834 3.37711 25.7108 3.46569C25.6443 4.53974 25.8215 4.3958 26.2312 4.47331C30.6381 5.33697 31.989 8.54805 32.3876 8.8913C32.6755 8.71414 32.764 8.5259 33.1959 8.66985C33.8492 8.8913 34.281 10.3307 34.5025 10.9397C35.7647 14.3612 32.1772 10.7737 28.0803 12.1688C26.1094 12.8442 25.1239 14.483 24.7807 13.4311L24.4817 4.72798C24.4153 3.4214 24.5703 2.64632 23.6512 2.56881H23.607ZM23.607 17.9377C23.2194 17.9709 22.8429 18.0484 22.4775 18.0816L22.5108 18.7128C22.9205 18.6352 23.1973 18.591 23.4409 18.5577V18.5356C23.4962 18.5356 23.5516 18.5356 23.607 18.5467C23.6623 18.5467 23.7177 18.5356 23.773 18.5356V18.5577C24.0166 18.591 24.2935 18.6352 24.7032 18.7128L24.7364 18.0816C24.3599 18.0484 23.9834 17.9709 23.607 17.9377ZM23.607 19.4435C23.2858 19.4657 22.6104 19.5211 22.4222 19.6207C22.2229 19.7204 21.9571 20.2297 21.8575 20.3847C22.6326 20.2076 23.1087 20.1079 23.4409 20.0636V20.0304C23.4962 20.0304 23.5516 20.0415 23.607 20.0415C23.6734 20.0304 23.7288 20.0304 23.773 20.0304V20.0636C24.1052 20.119 24.5814 20.2186 25.3564 20.3847C25.2568 20.2297 25.0021 19.7204 24.7917 19.6207C24.6035 19.5321 23.9281 19.4657 23.607 19.4435ZM23.607 21.3038C23.3966 21.3259 23.1862 21.3702 22.9869 21.4588C22.544 21.6581 22.544 21.7356 22.5772 21.9238C22.8319 21.9128 23.0976 21.7356 23.4409 21.6581V21.6138C23.4962 21.6138 23.5516 21.6138 23.607 21.6249C23.6623 21.6138 23.7177 21.6138 23.773 21.6138V21.6581C24.1163 21.7356 24.382 21.9128 24.6367 21.9238C24.6699 21.7356 24.6699 21.6581 24.227 21.4588C24.0277 21.3702 23.8173 21.3148 23.607 21.3038ZM23.773 32.4429H23.607H23.4409C21.3592 32.4318 19.2333 32.4096 17.3952 32.4761L17.3177 32.6643C19.0561 32.7197 21.2485 32.7197 23.4298 32.7086H23.5959H23.762C25.9544 32.7197 28.1467 32.7307 29.8741 32.6643L29.7966 32.4761C27.9696 32.4207 25.8326 32.4318 23.7509 32.4429H23.773ZM23.773 32.9743H23.4298H17.2291L22.1675 33.1404C22.6436 33.1404 23.1198 33.1515 23.607 33.1515C24.0942 33.1515 24.5703 33.1404 25.0464 33.1404L29.9848 32.9743H23.7841H23.773ZM23.5959 33.2401C22.9647 33.2401 22.4443 33.2512 22.1675 33.2512C20.8277 33.2622 19.0561 33.229 17.7606 33.4062C17.7606 33.4062 20.9495 33.4505 23.5959 33.4837C26.2423 33.4394 29.4312 33.3951 29.4312 33.4062C28.1357 33.229 26.364 33.2622 25.0243 33.2512C24.7474 33.2512 24.227 33.2401 23.5959 33.2401ZM23.773 33.6609V33.6719H23.607H23.5959H23.4298V33.6609C23.3301 33.6609 23.2305 33.6609 23.1419 33.6609C21.5474 33.6719 19.8533 33.7937 18.3696 33.8159C19.0339 33.8602 21.4589 33.8602 23.5959 33.8823C25.744 33.8602 28.1578 33.8602 28.8222 33.8159C27.3384 33.7937 25.6333 33.6719 24.0499 33.6609C23.9613 33.6609 23.8727 33.6609 23.762 33.6609H23.773ZM23.773 34.0816H23.618H23.463H23.4519C22.4443 34.0816 20.1966 34.2588 19.3772 34.137L19.3883 34.2809L21.0381 34.3141H23.463H23.8063H26.2312L27.881 34.2809L27.8921 34.137C27.0727 34.2588 24.8249 34.0816 23.8173 34.0816H23.8063H23.773ZM23.607 34.4692C22.6104 34.4913 21.6471 34.5134 20.8388 34.5356L19.5211 34.602L22.0014 34.7349C22.4886 34.746 23.0422 34.757 23.618 34.7681C24.1938 34.757 24.7474 34.746 25.2346 34.7349L27.7149 34.602L26.3973 34.5356C25.589 34.5134 24.6256 34.4802 23.6291 34.4692H23.607ZM23.773 34.8346H23.607H23.4409L22.0014 34.8124L19.9751 34.9231C21.182 35.0228 22.389 35.0449 23.607 35.0449H23.6291C24.8471 35.0449 26.0429 35.0228 27.2609 34.9231L25.2346 34.8124L23.7952 34.8346H23.773ZM23.607 35.3107C22.2561 35.3218 20.9495 35.3771 20.5841 35.4768C21.6249 35.5211 22.6215 35.5543 23.607 35.5543C24.5924 35.5432 25.589 35.5211 26.6298 35.4768C26.2644 35.3771 24.9578 35.3218 23.607 35.3107ZM23.607 35.7093C22.5772 35.7204 21.5807 35.7757 21.2042 35.8422C21.4699 35.964 22.4111 35.9972 23.4298 35.9861H23.5959H23.762C24.7917 35.9972 25.7218 35.964 25.9876 35.8422C25.6111 35.7757 24.6146 35.7204 23.5848 35.7093H23.607ZM23.773 36.1965H23.607H23.4409H22.1897L22.2007 36.3515H23.4409H23.607H23.773H25.0132L25.0243 36.1965H23.773ZM23.607 36.584C23.009 36.5951 22.4443 36.6283 22.2672 36.6505C22.4665 36.7723 22.9205 36.8055 23.4409 36.8055H23.607H23.773C24.2824 36.8055 24.7364 36.7723 24.9467 36.6505C24.7696 36.6394 24.2049 36.6062 23.607 36.584ZM23.773 37.9128V38.1564L23.607 38.0346L23.4409 38.1564V37.9128L18.6796 34.4913C18.2035 34.148 17.4063 33.4726 16.908 33.2512C16.8416 33.4062 16.7862 33.2622 16.9523 33.4283L23.0755 37.9792C23.2748 38.1231 23.4298 38.2671 23.607 38.3889C23.7841 38.2671 23.9502 38.1342 24.1384 37.9792L30.2616 33.4283C30.4166 33.2622 30.3724 33.4062 30.3059 33.2512C29.8076 33.4726 29.0104 34.137 28.5343 34.4913L23.773 37.9128ZM31.6568 20.7723C32.299 20.5397 33.2291 20.2408 33.2512 19.6429C32.9744 19.5543 31.7011 20.0415 31.1917 20.1522C30.5606 20.2961 29.398 20.2629 29.3315 20.9273C29.9073 21.2595 31.1032 20.9716 31.6568 20.7723ZM25.1239 16.0332C25.0353 16 24.7917 15.9778 24.6921 15.9889C24.2935 16 24.2492 16.0553 24.1052 16.2989C24.3378 16.7197 25.2014 16.775 25.4118 16.2989C25.3011 16.0664 25.5004 16.166 25.135 16.0442L25.1239 16.0332ZM32.6423 14.8816C31.1364 14.4166 30.3391 14.2948 28.6893 14.6602C27.427 14.948 26.4083 15.4352 25.8769 16.2214C26.4305 15.9778 26.6852 15.5238 28.1467 15.1695C29.1322 14.937 30.173 14.8595 31.1917 15.0477C35.6097 15.856 36.6506 19.7536 32.9301 21.5584C30.1509 22.9093 27.8921 21.7356 27.5488 21.9349C27.6817 22.101 27.6596 22.0788 27.9807 22.1785C29.0769 22.5107 31.2139 22.7875 32.2436 22.7211L32.6312 22.6546C32.7419 22.0567 32.7087 21.8131 33.3952 21.6692C35.1779 21.2927 36.2076 20.2519 35.7537 18.2034C35.0893 15.247 32.9744 15.2138 32.6423 14.8705V14.8816ZM31.6568 24.0276L26.1647 23.02C26.3751 23.474 26.5966 23.5404 26.8291 24.0276L30.3834 28.7335C30.5938 28.9993 30.4166 28.8442 30.6824 28.9993C31.1917 28.3128 34.7128 24.9467 34.8679 24.6145L31.6679 24.0387L31.6568 24.0276ZM25.3564 24.4373L25.2457 24.5038C25.3454 24.8802 25.6222 25.1238 25.8326 25.4228L27.9585 28.2131C28.3461 28.7003 29.7744 30.8041 30.2284 30.9923L30.1177 30.638C29.8852 30.5494 25.5557 24.8581 25.3564 24.4373ZM24.9246 25.7218C24.6699 25.6221 24.9135 25.5889 24.6146 25.4449C24.4263 25.3564 24.2049 25.3896 23.9391 25.3342L23.9281 31.5128H24.9578L24.9246 25.7107V25.7218ZM33.0187 42.519C33.4395 41.7882 33.9488 42.6186 33.3066 40.382C32.7198 38.3446 31.9004 35.2553 30.4609 33.6055C30.4942 34.2698 30.7378 35.1778 30.8596 35.8754C31.1253 37.4034 31.3578 38.865 31.4685 40.4262C31.535 41.3121 31.4685 42.1979 31.5239 43.0394C32.1551 42.9951 32.4872 42.6629 33.0187 42.519ZM31.0589 32.6975C31.6679 32.6532 31.5903 32.6643 31.9668 32.3432C32.0665 31.6235 31.8118 31.3577 31.0699 31.4352C31.0367 31.4574 30.7156 31.5792 30.6824 31.9889C30.6602 32.3432 30.9038 32.4761 31.0589 32.6975ZM27.8921 29.7411V30.2615V31.2027L27.9032 31.5017H29.254C29.1433 31.2692 28.0692 29.8851 27.8921 29.7301V29.7411ZM25.9101 27.1612V31.5238L26.9398 31.5349C26.9398 30.6602 26.9509 29.7743 26.9398 28.8996C26.9288 28.3681 26.8402 28.2906 26.5523 27.9474L25.9101 27.1723V27.1612ZM15.535 20.7723C14.8928 20.5397 13.9627 20.2408 13.9405 19.6429C14.2173 19.5543 15.4907 20.0415 16 20.1522C16.6312 20.2961 17.7938 20.2629 17.8602 20.9273C17.2845 21.2595 16.0886 20.9716 15.535 20.7723ZM22.0679 16.0332C22.1564 16 22.4 15.9778 22.4997 15.9889C22.8983 16 22.9426 16.0553 23.0865 16.2989C22.854 16.7197 21.9903 16.775 21.78 16.2989C21.8907 16.0664 21.6914 16.166 22.0568 16.0442L22.0679 16.0332ZM14.5495 14.8816C16.0554 14.4166 16.8526 14.2948 18.5025 14.6602C19.7647 14.948 20.7834 15.4352 21.3149 16.2214C20.7613 15.9778 20.5066 15.5238 19.045 15.1695C18.0596 14.937 17.0187 14.8595 16 15.0477C11.582 15.856 10.5412 19.7536 14.2616 21.5584C17.0409 22.9093 19.2997 21.7356 19.6429 21.9349C19.5101 22.101 19.5322 22.0788 19.2111 22.1785C18.1149 22.5107 15.9779 22.7875 14.9481 22.7211L14.5606 22.6546C14.4499 22.0567 14.4831 21.8131 13.7966 21.6692C12.0139 21.2927 10.9841 20.2519 11.4381 18.2034C12.1025 15.247 14.2173 15.2138 14.5495 14.8705V14.8816ZM15.535 24.0276L21.027 23.02C20.8166 23.474 20.5952 23.5404 20.3627 24.0276L16.8083 28.7335C16.598 28.9993 16.7751 28.8442 16.5094 28.9993C16 28.3128 12.4789 24.9467 12.3239 24.6145L15.5239 24.0387L15.535 24.0276ZM21.8353 24.4373L21.9461 24.5038C21.8464 24.8802 21.5696 25.1238 21.3592 25.4228L19.2333 28.2131C18.8457 28.7003 17.4173 30.8041 16.9634 30.9923L17.0741 30.638C17.3066 30.5494 21.636 24.8581 21.8353 24.4373ZM22.2672 25.7218C22.5218 25.6221 22.2782 25.5889 22.5772 25.4449C22.7654 25.3564 22.9869 25.3896 23.2526 25.3342L23.2637 31.5128H22.2339L22.2672 25.7107V25.7218ZM14.173 42.519C13.7523 41.7882 13.2429 42.6186 13.8852 40.382C14.472 38.3446 15.2914 35.2553 16.7308 33.6055C16.6976 34.2698 16.454 35.1778 16.3322 35.8754C16.0665 37.4034 15.8339 38.865 15.7232 40.4262C15.6568 41.3121 15.7232 42.1979 15.6679 43.0394C15.0367 42.9951 14.7045 42.6629 14.173 42.519ZM16.1329 32.6975C15.5239 32.6532 15.6014 32.6643 15.2249 32.3432C15.1253 31.6235 15.38 31.3577 16.1218 31.4352C16.1551 31.4574 16.4762 31.5792 16.5094 31.9889C16.5315 32.3432 16.2879 32.4761 16.1329 32.6975ZM19.2997 29.7411V30.2615V31.2027L19.2886 31.5017H17.9378C18.0485 31.2692 19.1225 29.8851 19.2997 29.7301V29.7411ZM21.2817 27.1612V31.5238L20.2519 31.5349C20.2519 30.6602 20.2409 29.7743 20.2519 28.8996C20.263 28.3681 20.3516 28.2906 20.6395 27.9474L21.2817 27.1723V27.1612Z" fill="black"/>
</svg>