<svg width="48" height="48" viewBox="0 0 48 48" fill="none" xmlns="http://www.w3.org/2000/svg">
    <path d="M10.889 21.2565H2.63911V34.0165H10.889V21.2565Z" fill="#FF0000"/>
    <path d="M43.4584 21.7296H36.3379V28.6577H43.4584V21.7296Z" fill="#AEBFCE"/>
    <path d="M8.00257 22.4399H2.68021C2.51509 22.4399 2.35157 22.4075 2.19901 22.3443C2.04644 22.2812 1.90781 22.1886 1.79105 22.0718C1.67429 21.9551 1.58169 21.8165 1.51855 21.6639C1.4554 21.5113 1.42294 21.3478 1.42304 21.1827V15.3521C1.42304 13.5147 2.15295 11.7525 3.45219 10.4533C4.75143 9.15404 6.51359 8.42413 8.35099 8.42413H40.2538C41.4051 8.42535 42.5189 8.83352 43.3984 9.5765C44.278 10.3195 44.8665 11.3494 45.0601 12.4844C45.5137 15.1141 45.8325 18.0493 46.0565 20.9319C46.0694 21.1006 46.0472 21.2701 45.9914 21.4298C45.9357 21.5895 45.8475 21.736 45.7325 21.86C45.6175 21.9841 45.4781 22.083 45.3231 22.1507C45.1681 22.2184 45.0007 22.2533 44.8316 22.2532H38.8633C38.4049 22.2532 37.9652 22.4353 37.6409 22.7594C37.3167 23.0836 37.1345 23.5232 37.1343 23.9816V26.1006C37.1344 26.2823 37.1979 26.4582 37.3139 26.5981C37.4299 26.738 37.5911 26.8329 37.7696 26.8666L44.34 28.1082C44.9443 28.2223 45.4912 28.5404 45.8891 29.0093C46.287 29.4782 46.5119 30.0696 46.5261 30.6844C46.5632 32.3197 46.5751 33.684 46.5776 34.6317C46.5782 34.822 46.5412 35.0105 46.4687 35.1865C46.3963 35.3624 46.2898 35.5223 46.1554 35.657C46.021 35.7917 45.8614 35.8986 45.6856 35.9715C45.5098 36.0444 45.3214 36.0818 45.1311 36.0817H3.32144C2.81775 36.0817 2.33471 35.8816 1.97856 35.5254C1.62241 35.1692 1.42234 34.6862 1.42234 34.1825V32.1973H9.82135V24.2588C9.82135 23.7764 9.62973 23.3138 9.28865 22.9727C8.94756 22.6315 8.48495 22.4399 8.00257 22.4399Z" fill="#FF0000"/>
    <path d="M4.14778 17.8408H43.2537C43.338 17.8406 43.4195 17.871 43.4831 17.9263C43.5467 17.9816 43.5881 18.0581 43.5997 18.1416C43.6677 18.6459 43.6398 19.1519 43.7077 19.658C43.7141 19.7074 43.7098 19.7577 43.6953 19.8053C43.6807 19.853 43.6561 19.897 43.6232 19.9344C43.5902 19.9718 43.5497 20.0018 43.5043 20.0223C43.4588 20.0428 43.4095 20.0533 43.3597 20.0533H4.14778C4.05492 20.0533 3.96587 20.0164 3.9002 19.9507C3.83455 19.8851 3.79766 19.796 3.79766 19.7032V18.1909C3.7977 18.098 3.83459 18.009 3.90025 17.9433C3.9659 17.8777 4.05493 17.8408 4.14778 17.8408Z" fill="#2D6FAA"/>
    <path d="M29.9195 23.3257H33.6757C34.1828 23.3257 34.5939 23.7368 34.5939 24.244V26.0656C34.5939 26.5727 34.1828 26.9838 33.6757 26.9838H29.9195C29.4124 26.9838 29.0013 26.5727 29.0013 26.0656V24.244C29.0013 23.7368 29.4124 23.3257 29.9195 23.3257Z" fill="white"/>
    <path d="M21.5077 23.3257H25.2638C25.7709 23.3257 26.182 23.7368 26.182 24.244V26.0656C26.182 26.5727 25.7709 26.9838 25.2638 26.9838H21.5077C21.0005 26.9838 20.5894 26.5727 20.5894 26.0656V24.244C20.5894 23.7368 21.0005 23.3257 21.5077 23.3257Z" fill="white"/>
    <path d="M25.8132 11.1836H29.9717C30.4261 11.1836 30.7944 11.552 30.7944 12.0064V14.1572C30.7944 14.6116 30.4261 14.98 29.9717 14.98H25.8132C25.3588 14.98 24.9904 14.6116 24.9904 14.1572V12.0064C24.9904 11.552 25.3588 11.1836 25.8132 11.1836Z" fill="white"/>
    <path d="M16.5882 11.1836H20.7467C21.2011 11.1836 21.5695 11.552 21.5695 12.0064V14.1572C21.5695 14.6116 21.2011 14.98 20.7467 14.98H16.5882C16.1338 14.98 15.7654 14.6116 15.7654 14.1572V12.0064C15.7654 11.552 16.1338 11.1836 16.5882 11.1836Z" fill="white"/>
    <path d="M13.0958 23.3257H16.8519C17.359 23.3257 17.7701 23.7368 17.7701 24.244V26.0656C17.7701 26.5727 17.359 26.9838 16.8519 26.9838H13.0958C12.5887 26.9838 12.1776 26.5727 12.1776 26.0656V24.244C12.1776 23.7368 12.5887 23.3257 13.0958 23.3257Z" fill="white"/>
    <path d="M6.80432 22.4399H5.40075V32.1973H6.80432V22.4399Z" fill="#DAE5ED"/>
    <path d="M6.80432 26.0102L5.40075 24.9075V22.4399H6.80432V26.0102Z" fill="#8294AF"/>
    <path d="M34.8768 11.192H38.7638C39.0982 11.192 39.425 11.2926 39.7015 11.4808C39.978 11.6689 40.1915 11.9359 40.3143 12.247L41.4041 15.0091H34.8768C34.735 15.0091 34.5991 14.9528 34.4988 14.8526C34.3986 14.7524 34.3423 14.6164 34.3423 14.4747V11.7265C34.3423 11.5848 34.3986 11.4488 34.4988 11.3486C34.5991 11.2483 34.735 11.192 34.8768 11.192Z" fill="white"/>
    <path d="M11.6829 11.192H7.7959C7.46145 11.192 7.13474 11.2927 6.85822 11.4808C6.5817 11.669 6.36817 11.9359 6.24536 12.247L5.15562 15.0091H11.6829C11.8247 15.0091 11.9606 14.9528 12.0609 14.8526C12.1611 14.7524 12.2174 14.6164 12.2174 14.4747V11.7265C12.2174 11.5848 12.1611 11.4488 12.0609 11.3486C11.9606 11.2483 11.8247 11.192 11.6829 11.192Z" fill="white"/>
    <path d="M46.5549 32.1973H9.72199V30.8677H46.5301C46.5404 31.3353 46.5484 31.7797 46.5549 32.1973Z" fill="#FF0000"/>
    <path d="M39.4433 39.5763C37.4056 39.5763 35.7538 37.9244 35.7538 35.8868C35.7538 33.8491 37.4056 32.1973 39.4433 32.1973C41.481 32.1973 43.1328 33.8491 43.1328 35.8868C43.1328 37.9244 41.481 39.5763 39.4433 39.5763Z" fill="#343C47"/>
    <path d="M39.4432 37.1747C38.7319 37.1747 38.1553 36.5981 38.1553 35.8868C38.1553 35.1755 38.7319 34.5988 39.4432 34.5988C40.1546 34.5988 40.7312 35.1755 40.7312 35.8868C40.7312 36.5981 40.1546 37.1747 39.4432 37.1747Z" fill="#AEBFCE"/>
    <path d="M14.9779 39.5763C12.9402 39.5763 11.2883 37.9244 11.2883 35.8868C11.2883 33.8491 12.9402 32.1973 14.9779 32.1973C17.0155 32.1973 18.6674 33.8491 18.6674 35.8868C18.6674 37.9244 17.0155 39.5763 14.9779 39.5763Z" fill="#343C47"/>
    <path d="M14.9778 37.1747C14.2665 37.1747 13.6898 36.5981 13.6898 35.8868C13.6898 35.1755 14.2665 34.5988 14.9778 34.5988C15.6891 34.5988 16.2657 35.1755 16.2657 35.8868C16.2657 36.5981 15.6891 37.1747 14.9778 37.1747Z" fill="#AEBFCE"/>
</svg>
