<svg width="48" height="48" viewBox="0 0 48 48" fill="none" xmlns="http://www.w3.org/2000/svg">
    <path fill-rule="evenodd" clip-rule="evenodd" d="M20 5.5H28C28.828 5.5 29.5 4.828 29.5 4C29.5 3.172 28.828 2.5 28 2.5H20C19.172 2.5 18.5 3.172 18.5 4C18.5 4.828 19.172 5.5 20 5.5Z" fill="#0066FF"/>
    <path fill-rule="evenodd" clip-rule="evenodd" d="M35.3541 8.40399L39.5961 12.646C40.1821 13.232 41.132 13.232 41.7181 12.646C42.3021 12.062 42.3021 11.11 41.7181 10.526L37.4741 6.28199C36.8901 5.69799 35.9381 5.69799 35.3541 6.28199C34.7681 6.86799 34.7681 7.81799 35.3541 8.40399Z" fill="#0066FF"/>
    <path fill-rule="evenodd" clip-rule="evenodd" d="M36.06 14.06L39.596 10.526C40.182 9.93998 40.182 8.98998 39.596 8.40398C39.01 7.81798 38.06 7.81798 37.474 8.40398L33.94 11.94C33.354 12.524 33.354 13.476 33.94 14.06C34.524 14.646 35.476 14.646 36.06 14.06Z" fill="#0066FF"/>
    <path fill-rule="evenodd" clip-rule="evenodd" d="M24 7.5C13.514 7.5 5 16.014 5 26.5C5 36.986 13.514 45.5 24 45.5C34.486 45.5 43 36.986 43 26.5C43 16.014 34.486 7.5 24 7.5ZM28.062 24.56L31.072 21.55C31.656 20.964 31.656 20.014 31.072 19.428C30.486 18.844 29.536 18.844 28.95 19.428L25.94 22.438C25.352 22.158 24.694 22 24 22C21.516 22 19.5 24.016 19.5 26.5C19.5 28.984 21.516 31 24 31C26.484 31 28.5 28.984 28.5 26.5C28.5 25.806 28.342 25.148 28.062 24.56ZM24 25C24.828 25 25.5 25.672 25.5 26.5C25.5 27.328 24.828 28 24 28C23.172 28 22.5 27.328 22.5 26.5C22.5 25.672 23.172 25 24 25ZM13.5 26.5C13.5 20.704 18.204 16 24 16C24.828 16 25.5 15.328 25.5 14.5C25.5 13.672 24.828 13 24 13C16.55 13 10.5 19.05 10.5 26.5C10.5 27.328 11.172 28 12 28C12.828 28 13.5 27.328 13.5 26.5Z" fill="#0066FF"/>
</svg>
